<mxfile host="app.diagrams.net" modified="2024-01-19T21:39:28.728Z" agent="Mozilla/5.0 (Macintosh; Intel Mac OS X 10.15; rv:121.0) Gecko/20100101 Firefox/121.0" version="22.1.21" etag="_sySvbbsyHK6BgYRlo2q" type="github">
  <diagram name="PÃ¡gina-1" id="dtRXP0YoW3p7AYbDSXWt">
    <mxGraphModel>
      <root>
        <mxCell id="0" />
        <mxCell id="1" parent="0" />
      </root>
    </mxGraphModel>
  </diagram>
</mxfile>
